<svg xmlns="http://www.w3.org/2000/svg" version="1.1" xmlns:xlink="http://www.w3.org/1999/xlink" xmlns:svgjs="http://svgjs.dev/svgjs" width="1500" height="1500" viewBox="0 0 1500 1500"><rect width="1500" height="1500" fill="#ffffff"></rect><g transform="matrix(0.6666666666666666,0,0,0.6666666666666666,248.94342733812948,302.56129032258065)"><svg viewBox="0 0 278 248" data-background-color="#ffffff" preserveAspectRatio="xMidYMid meet" height="1338" width="1500" xmlns="http://www.w3.org/2000/svg" xmlns:xlink="http://www.w3.org/1999/xlink"><g id="tight-bounds" transform="matrix(1,0,0,1,0.2937272000000064,0.4000000000000057)"><svg viewBox="0 0 277.4125456 247.2" height="247.2" width="277.4125456"><g><svg viewBox="0 0 277.4125456 247.2" height="247.2" width="277.4125456"><g transform="matrix(1,0,0,1,111.41254559999999,0)"><svg viewBox="0 0 166 247.2" height="247.2" width="166"><g id="textblocktransform"><svg viewBox="0 0 166 247.2" height="247.2" width="166" id="textblock"><g><svg viewBox="0 0 166 247.2" height="247.2" width="166"><g transform="matrix(1,0,0,1,0,0)"><svg width="166" viewBox="16.73 -42.95 62.25 89.30000000000001" height="247.2" data-palette-color="#32352f"><svg></svg><svg></svg><g class="wordmark-text-0" data-fill-palette-color="primary" id="text-0"><path transform="translate(14.83,0)" d="M1.9 0v-42.95h11.35c3.433 0 5.883 1.107 7.35 3.32 1.467 2.22 2.2 5.463 2.2 9.73v0c0 4.267-0.65 7.483-1.95 9.65-1.3 2.167-3.633 3.25-7 3.25v0h-3.5v17zM10.35-24.75h0.5c1.033 0 1.793-0.193 2.28-0.58 0.48-0.38 0.797-0.93 0.95-1.65 0.147-0.713 0.22-1.737 0.22-3.07v0c0-1.8-0.2-3.1-0.6-3.9-0.4-0.8-1.2-1.2-2.4-1.2v0h-0.95zM25.35 0v-36.6h8.75v4.05c0.433-1.433 1.193-2.543 2.28-3.33 1.08-0.78 2.42-1.17 4.02-1.17v0 7.3c-1.233 0-2.59 0.173-4.07 0.52-1.487 0.353-2.23 0.763-2.23 1.23v0 28zM53.2 0.4c-7.3 0-10.95-3.783-10.95-11.35v0-14.7c0-3.467 0.973-6.227 2.92-8.28 1.953-2.047 4.63-3.07 8.03-3.07v0c3.4 0 6.073 1.023 8.02 3.07 1.953 2.053 2.93 4.813 2.93 8.28v0 14.7c0 7.567-3.65 11.35-10.95 11.35zM53.2-6.35c0.7 0 1.217-0.25 1.55-0.75 0.333-0.5 0.5-1.183 0.5-2.05v0-17.9c0-2.133-0.683-3.2-2.05-3.2v0c-1.367 0-2.05 1.067-2.05 3.2v0 17.9c0 0.867 0.167 1.55 0.5 2.05 0.333 0.5 0.85 0.75 1.55 0.75z" fill="#32352f" fill-rule="nonzero" stroke="none" stroke-width="1" stroke-linecap="butt" stroke-linejoin="miter" stroke-miterlimit="10" stroke-dasharray="" stroke-dashoffset="0" font-family="none" font-weight="none" font-size="none" text-anchor="none" style="mix-blend-mode: normal" data-fill-palette-color="primary" opacity="1"></path><path transform="translate(22.98,46.35)" d="M10.45 0h-8.55v-42.95h8.55v15.35h4.05v-15.35h8.55v42.95h-8.55v-19.5h-4.05zM26.85 0v-42.95h13.2c2.1 0 3.727 0.473 4.88 1.42 1.147 0.953 1.92 2.29 2.32 4.01 0.4 1.713 0.6 3.903 0.6 6.57v0c0 2.433-0.317 4.333-0.95 5.7-0.633 1.367-1.733 2.317-3.3 2.85v0c1.3 0.267 2.243 0.917 2.83 1.95 0.58 1.033 0.87 2.433 0.87 4.2v0l-0.1 16.25h-8.4v-16.8c0-1.2-0.233-1.967-0.7-2.3-0.467-0.333-1.317-0.5-2.55-0.5v0 19.6zM35.6-27.05h2.05c1.2 0 1.8-1.3 1.8-3.9v0c0-1.133-0.05-1.983-0.15-2.55-0.1-0.567-0.283-0.96-0.55-1.18-0.267-0.213-0.65-0.32-1.15-0.32v0h-2z" fill="#000000" fill-rule="nonzero" stroke="none" stroke-width="1" stroke-linecap="butt" stroke-linejoin="miter" stroke-miterlimit="10" stroke-dasharray="" stroke-dashoffset="0" font-family="none" font-weight="none" font-size="none" text-anchor="none" style="mix-blend-mode: normal" data-fill-palette-color="secondary" opacity="1"></path></g></svg></g></svg></g></svg></g></svg></g><g transform="matrix(1,0,0,1,0,81.53891999999999)"><svg viewBox="0 0 84.12216 84.12216" height="84.12216" width="84.12216"><g><svg xmlns="http://www.w3.org/2000/svg" xmlns:xlink="http://www.w3.org/1999/xlink" version="1.0" x="0" y="0" viewBox="20 20 60 60" enable-background="new 0 0 100 100" xml:space="preserve" height="84.12216" width="84.12216" class="icon-icon-0" data-fill-palette-color="accent" id="icon-0"><path d="M20 26.667A6.67 6.67 0 0 1 26.667 33.334V63.334C26.667 72.539 34.128 80 43.333 80S60 72.539 60 63.334V40A3.33 3.33 0 0 1 63.333 36.667 3.33 3.33 0 0 1 66.667 40V56.666C66.667 64.023 72.637 70 80 70V63.334A6.67 6.67 0 0 1 73.333 56.666V40C73.333 34.476 68.854 30 63.333 30S53.333 34.476 53.333 40V63.334C53.333 68.857 48.854 73.334 43.333 73.334S33.333 68.857 33.333 63.334V33.334C33.333 25.973 27.363 20 20 20z" fill="#99a28e" data-fill-palette-color="accent"></path></svg></g></svg></g></svg></g><defs></defs></svg><rect width="277.4125456" height="247.2" fill="none" stroke="none" visibility="hidden"></rect></g></svg></g></svg>